{
    "asset" : {
        "generator" : "Khronos glTF Blender I/O v1.8.19",
        "version" : "2.0"
    },
    "scene" : 0,
    "scenes" : [
        {
            "name" : "Scene",
            "nodes" : [
                0
            ]
        }
    ],
    "nodes" : [
        {
            "mesh" : 0,
            "name" : "SrPAL",
            "rotation" : [
                0.7071068286895752,
                0,
                0,
                0.7071068286895752
            ],
            "translation" : [
                -165.34963989257812,
                -8.437861442565918,
                -9.735995292663574
            ]
        }
    ],
    "meshes" : [
        {
            "name" : "SrPAL",
            "primitives" : [
                {
                    "attributes" : {
                        "POSITION" : 0,
                        "NORMAL" : 1
                    },
                    "indices" : 2
                }
            ]
        }
    ],
    "accessors" : [
        {
            "bufferView" : 0,
            "componentType" : 5126,
            "count" : 30749,
            "max" : [
                175.3497314453125,
                9.670336723327637,
                0.12225787341594696
            ],
            "min" : [
                -28.42807388305664,
                -0.8973965644836426,
                -17.10272979736328
            ],
            "type" : "VEC3"
        },
        {
            "bufferView" : 1,
            "componentType" : 5126,
            "count" : 30749,
            "type" : "VEC3"
        },
        {
            "bufferView" : 2,
            "componentType" : 5123,
            "count" : 31326,
            "type" : "SCALAR"
        }
    ],
    "bufferViews" : [
        {
            "buffer" : 0,
            "byteLength" : 368988,
            "byteOffset" : 0
        },
        {
            "buffer" : 0,
            "byteLength" : 368988,
            "byteOffset" : 368988
        },
        {
            "buffer" : 0,
            "byteLength" : 62652,
            "byteOffset" : 737976
        }
    ],
    "buffers" : [
        {
            "byteLength" : 800628,
            "uri" : "schreck.bin"
        }
    ]
}
