{
    "asset" : {
        "generator" : "Khronos glTF Blender I/O v1.8.19",
        "version" : "2.0"
    },
    "scene" : 0,
    "scenes" : [
        {
            "name" : "Scene",
            "nodes" : [
                0,
                1
            ]
        }
    ],
    "nodes" : [
        {
            "mesh" : 0,
            "name" : "SrPAL"
        },
        {
            "mesh" : 1,
            "name" : "Coil"
        }
    ],
    "materials" : [
        {
            "doubleSided" : true,
            "name" : "Material.002",
            "pbrMetallicRoughness" : {
                "baseColorFactor" : [
                    0.5273293256759644,
                    0.6187323331832886,
                    0.7484002113342285,
                    1
                ],
                "roughnessFactor" : 0.8700787425041199
            }
        },
        {
            "doubleSided" : true,
            "name" : "Material.001",
            "pbrMetallicRoughness" : {
                "baseColorFactor" : [
                    0.8000000715255737,
                    0.12547490000724792,
                    0.050734471529722214,
                    1
                ]
            }
        }
    ],
    "meshes" : [
        {
            "name" : "SrPAL",
            "primitives" : [
                {
                    "attributes" : {
                        "POSITION" : 0,
                        "NORMAL" : 1
                    },
                    "indices" : 2,
                    "material" : 0
                }
            ]
        },
        {
            "name" : "Cylinder",
            "primitives" : [
                {
                    "attributes" : {
                        "POSITION" : 3,
                        "NORMAL" : 4,
                        "TEXCOORD_0" : 5
                    },
                    "indices" : 6,
                    "material" : 1
                }
            ]
        }
    ],
    "accessors" : [
        {
            "bufferView" : 0,
            "componentType" : 5126,
            "count" : 79177,
            "max" : [
                -10.404815673828125,
                8.766571998596191,
                0.008187420666217804
            ],
            "min" : [
                -193.4700164794922,
                -8.406670570373535,
                -8.644291877746582
            ],
            "type" : "VEC3"
        },
        {
            "bufferView" : 1,
            "componentType" : 5126,
            "count" : 79177,
            "type" : "VEC3"
        },
        {
            "bufferView" : 2,
            "componentType" : 5125,
            "count" : 86100,
            "type" : "SCALAR"
        },
        {
            "bufferView" : 3,
            "componentType" : 5126,
            "count" : 514,
            "max" : [
                -12.436553955078125,
                6.746886253356934,
                0.04599165916442871
            ],
            "min" : [
                -139.85397338867188,
                -6.520871639251709,
                -6.633877277374268
            ],
            "type" : "VEC3"
        },
        {
            "bufferView" : 4,
            "componentType" : 5126,
            "count" : 514,
            "type" : "VEC3"
        },
        {
            "bufferView" : 5,
            "componentType" : 5126,
            "count" : 514,
            "type" : "VEC2"
        },
        {
            "bufferView" : 6,
            "componentType" : 5123,
            "count" : 792,
            "type" : "SCALAR"
        }
    ],
    "bufferViews" : [
        {
            "buffer" : 0,
            "byteLength" : 950124,
            "byteOffset" : 0
        },
        {
            "buffer" : 0,
            "byteLength" : 950124,
            "byteOffset" : 950124
        },
        {
            "buffer" : 0,
            "byteLength" : 344400,
            "byteOffset" : 1900248
        },
        {
            "buffer" : 0,
            "byteLength" : 6168,
            "byteOffset" : 2244648
        },
        {
            "buffer" : 0,
            "byteLength" : 6168,
            "byteOffset" : 2250816
        },
        {
            "buffer" : 0,
            "byteLength" : 4112,
            "byteOffset" : 2256984
        },
        {
            "buffer" : 0,
            "byteLength" : 1584,
            "byteOffset" : 2261096
        }
    ],
    "buffers" : [
        {
            "byteLength" : 2262680,
            "uri" : "data:application/octet-stream;base64,"
        }
    ]
}
